<?xml version="1.0" standalone="no"?>
<!DOCTYPE svg PUBLIC "-//W3C//DTD SVG 20010904//EN"
 "http://www.w3.org/TR/2001/REC-SVG-20010904/DTD/svg10.dtd">
<svg version="1.0" xmlns="http://www.w3.org/2000/svg"
 width="512.000000pt" height="512.000000pt" viewBox="0 0 512.000000 512.000000"
 preserveAspectRatio="xMidYMid meet">
<metadata>
Created by potrace 1.14, written by Peter Selinger 2001-2017
</metadata>
<g transform="translate(0.000000,512.000000) scale(0.100000,-0.100000)"
fill="#000000" stroke="none">
<path d="M0 2560 l0 -2560 2560 0 2560 0 0 2560 0 2560 -2560 0 -2560 0 0
-2560z m2845 2122 c315 -71 591 -237 793 -475 209 -247 324 -533 339 -844 l6
-133 -907 0 c-722 0 -907 -3 -904 -12 3 -8 32 -16 69 -20 113 -13 311 -49 439
-79 443 -105 776 -266 995 -483 144 -142 228 -286 276 -471 21 -79 24 -113 24
-285 0 -208 -10 -277 -61 -444 -133 -426 -491 -784 -927 -927 -162 -53 -307
-72 -497 -66 -93 3 -198 13 -240 22 -659 143 -1115 675 -1155 1348 l-6 107
905 0 c758 0 906 2 906 14 0 9 -21 15 -67 20 -107 11 -337 53 -469 85 -717
176 -1143 507 -1249 971 -26 114 -24 402 4 536 62 300 187 532 400 744 233
233 458 344 831 414 14 2 111 3 215 1 145 -2 211 -8 280 -23z"/>
<path d="M2429 4605 c-100 -37 -202 -132 -288 -270 -43 -68 -52 -88 -41 -95
35 -22 278 -70 353 -70 l37 0 0 225 c0 246 3 234 -61 210z"/>
<path d="M2590 4395 l0 -225 39 0 c89 0 361 61 361 81 0 5 -19 41 -42 81 -61
103 -178 219 -258 257 -107 51 -100 65 -100 -194z"/>
<path d="M2113 4555 c-144 -48 -335 -148 -316 -165 15 -14 168 -98 189 -104
17 -5 28 7 73 82 29 49 79 119 112 155 34 37 57 67 52 67 -4 0 -54 -16 -110
-35z"/>
<path d="M2901 4534 c57 -60 122 -152 154 -214 10 -19 19 -36 20 -38 4 -4 127
59 178 90 l38 24 -78 46 c-82 48 -218 108 -291 128 -24 6 -51 14 -60 17 -9 4
8 -20 39 -53z"/>
<path d="M1622 4264 c-83 -77 -237 -269 -227 -284 12 -20 440 -188 451 -177 2
2 17 55 33 118 25 96 50 173 85 259 5 11 -3 19 -26 28 -32 11 -156 80 -209
115 l-26 17 -81 -76z"/>
<path d="M3324 4310 c-22 -16 -76 -47 -120 -70 -43 -23 -80 -43 -82 -45 -1 -1
17 -63 42 -136 24 -74 49 -160 56 -191 9 -46 15 -58 30 -58 51 0 430 155 430
176 0 36 -206 274 -286 331 l-29 21 -41 -28z"/>
<path d="M2035 4123 c-30 -70 -85 -262 -87 -305 l-3 -42 80 -18 c115 -25 305
-48 391 -48 l74 0 0 183 0 183 -107 11 c-93 10 -262 47 -315 68 -13 5 -21 -2
-33 -32z"/>
<path d="M2936 4134 c-80 -24 -256 -54 -315 -54 l-31 0 0 -185 0 -185 69 0
c111 0 467 53 486 72 16 16 -99 379 -119 377 -6 -1 -47 -12 -90 -25z"/>
<path d="M1307 3821 c-60 -130 -117 -361 -117 -473 l0 -28 303 0 303 0 14 163
c7 89 14 177 14 195 l1 33 -120 41 c-66 22 -169 62 -230 89 -60 28 -115 52
-121 55 -6 3 -27 -31 -47 -75z"/>
<path d="M3620 3850 c-79 -36 -272 -108 -367 -136 -1 0 4 -49 12 -110 8 -60
15 -148 15 -196 l0 -88 305 0 c168 0 305 2 305 4 0 44 -36 255 -54 317 -27 94
-94 260 -105 258 -3 -1 -53 -23 -111 -49z"/>
<path d="M1916 3663 c-9 -46 -26 -231 -26 -289 l0 -54 300 0 300 0 0 148 0
149 -122 6 c-110 6 -387 46 -430 62 -12 5 -18 -1 -22 -22z"/>
<path d="M3060 3670 c-106 -23 -324 -50 -407 -50 l-63 0 0 -150 0 -150 305 0
305 0 -5 73 c-15 198 -28 297 -39 296 -6 -1 -49 -9 -96 -19z"/>
<path d="M1190 1803 c0 -115 59 -351 118 -474 l37 -77 118 53 c65 29 170 70
235 91 64 21 119 40 121 41 2 1 -1 49 -7 105 -6 57 -14 145 -18 196 l-7 92
-298 0 -299 0 0 -27z"/>
<path d="M1884 1718 c6 -102 23 -249 29 -254 1 -1 56 9 122 21 143 28 288 45
385 45 l70 0 0 150 0 150 -306 0 -307 0 7 -112z"/>
<path d="M2590 1680 l0 -150 73 0 c90 0 293 -25 406 -49 47 -11 87 -18 88 -18
3 3 22 191 29 280 l6 87 -301 0 -301 0 0 -150z"/>
<path d="M3276 1799 c-3 -17 -6 -57 -6 -88 0 -54 -15 -203 -25 -247 -4 -19 8
-25 122 -63 69 -23 176 -64 237 -92 61 -28 116 -52 121 -55 15 -6 92 180 120
289 13 51 26 124 30 162 3 39 9 82 11 98 l6 27 -305 0 -304 0 -7 -31z"/>
<path d="M2410 1443 c-163 -9 -453 -54 -474 -74 -11 -10 35 -194 76 -302 24
-63 33 -77 46 -72 83 32 309 75 393 75 l39 0 0 190 c0 146 -3 190 -12 188 -7
-1 -38 -3 -68 -5z"/>
<path d="M2590 1261 l0 -187 113 -12 c95 -10 248 -43 308 -67 13 -5 23 11 49
82 39 108 82 285 72 294 -18 18 -307 62 -474 73 l-68 4 0 -187z"/>
<path d="M1725 1311 c-114 -39 -291 -114 -318 -134 -14 -11 -12 -18 16 -59 58
-84 145 -184 213 -244 l66 -58 42 23 c22 14 79 44 126 69 47 25 86 46 87 46 1
1 -15 51 -36 111 -21 61 -47 146 -56 190 -10 44 -21 83 -24 87 -3 4 -55 -10
-116 -31z"/>
<path d="M3211 1288 c-7 -35 -32 -123 -57 -197 -24 -74 -43 -135 -42 -135 42
-18 133 -65 184 -96 40 -24 74 -38 84 -35 45 14 300 306 300 343 0 17 -407
182 -449 182 -4 0 -13 -28 -20 -62z"/>
<path d="M2300 963 c-47 -8 -115 -25 -153 -37 l-67 -21 45 -78 c85 -145 227
-269 333 -292 l32 -7 0 226 0 226 -52 -1 c-29 0 -91 -8 -138 -16z"/>
<path d="M2590 756 l0 -226 28 6 c97 23 236 145 320 284 41 66 49 86 38 92
-30 17 -226 58 -303 65 l-83 6 0 -227z"/>
<path d="M1909 827 c-138 -76 -135 -67 -49 -117 79 -46 261 -123 319 -135 l34
-7 -56 66 c-31 37 -80 105 -108 151 -29 47 -55 85 -58 85 -3 0 -40 -19 -82
-43z"/>
<path d="M3046 833 c-30 -64 -96 -155 -155 -216 -53 -55 -54 -58 -26 -51 103
24 284 102 388 166 l38 24 -79 46 c-73 44 -123 68 -141 68 -4 0 -15 -17 -25
-37z"/>
</g>
</svg>
