<svg xmlns="http://www.w3.org/2000/svg" width="64" height="64" fill="none" viewBox="0 0 64 64"><path fill="currentColor" d="M14.3257 63.9986H1.05714V21.27H14.3257v42.7286ZM7.68429 15.4414C3.44143 15.4414 0 11.9271 0 7.68428c3e-8-2.03799.809592-3.99252 2.25068-5.43361C3.69176.809592 5.64629 0 7.68429 0s3.99251.809592 5.43361 2.25067c1.4411 1.44109 2.2507 3.39562 2.2507 5.43361 0 4.24282-3.4429 7.75712-7.68431 7.75712ZM63.9857 63.9986h-13.24v-20.8c0-4.9572-.1-11.3143-6.8986-11.3143-6.8985 0-7.9557 5.3857-7.9557 10.9571v21.1572H22.6371V21.27h12.7258v5.8286h.1857c1.7714-3.3572 6.0985-6.9 12.5543-6.9C61.5314 20.1986 64 29.0414 64 40.5271v23.4715h-.0143Z"/></svg>
