<svg xmlns="http://www.w3.org/2000/svg" width="30" height="20" fill="none" viewBox="0 0 30 20"><path fill="currentColor" fill-rule="evenodd" d="M1.45384 20h-.00307c-.18951.001-.37736-.0353-.552832-.1069-.17547-.0716-.335121-.1771-.469838-.3103-.134716-.1333-.241861-.2918-.315314-.4665C.0393322 18.9416.00100748 18.7541 0 18.5646 0 10.6169 5.40461 5.29384 13.4477 5.29384h2.3369V1.5c0-.827693.6585-1.5 1.4662-1.5.3123.00043501.616.103096.8646.292307L28.6338 8.20615c.187.14024.3385.32246.4422.53196.1036.20951.1567.44044.1547.67419 0 .47846-.2153.9185-.5969 1.2062l-10.5184 7.9123c-.2486.1892-.5523.2918-.8646.2923-.393-.0049-.768-.1654-1.0428-.4463-.2748-.2809-.4271-.6592-.4234-1.0522v-3.7954h-4.12c-4.36615 0-6.94153 1.6246-8.89383 5.6046l-.03231.0631c-.12031.2385-.30366.4394-.53013.581-.22648.1416-.48742.2184-.75449.2221ZM13.4477 6.47076c-7.45847 0-12.27847 4.73694-12.27847 12.06614.00308.2369.20615.2862.28308.2862h.00153c.0477 0 .16462-.0154.24462-.1662 2.17538-4.4308 5.14923-6.3046 9.96614-6.3046h4.7046c.3231 0 .5846.2631.5846.5892v4.3831c-.002.0408.004.0816.0179.12.0139.0384.0352.0737.0629.1038.0276.03.061.0543.0981.0714.0371.017.0772.0265.1181.0279.0593-.0009.1167-.0215.163-.0585l10.52-7.91382c.0414-.03046.075-.0702.0981-.11604.0232-.04583.0353-.09646.0353-.14781 0-.05135-.0121-.10199-.0353-.14782-.0231-.04583-.0567-.08557-.0981-.11603l-10.5184-7.9123c-.0468-.03745-.1048-.05805-.1646-.05846-.0409.00138-.081.01087-.1181.02792-.0371.01705-.0705.04132-.0981.07139-.0277.03007-.049.06535-.0629.10377-.0139.03841-.0199.07921-.0179.12v4.38307c.0004.07703-.0144.15338-.0436.22467-.0292.07128-.0722.13609-.1265.19071-.0543.05461-.1189.09795-.1901.12752-.0711.02957-.1474.04479-.2244.04479h-2.9215Z" clip-rule="evenodd"/></svg>
