<svg xmlns="http://www.w3.org/2000/svg" width="36" height="37" viewBox="0 0 36 37"><path fill="currentColor" fill-rule="evenodd" d="m35.851 14.145-3.355 8.535a3.067 3.067 0 0 1-2.856 1.987H13.456c.499 1.481.85 2.485.974 2.753.423.921.805 1.101 1.322 1.101h14.8v1.541h-14.8c-1.605 0-2.314-1.137-2.708-1.993-.527-1.146-4.227-12.631-5.793-17.516a.76.76 0 0 0-.726-.532H-.001V8.479h6.526c.997 0 1.873.643 2.18 1.6 1.495 4.663 3.098 9.616 4.236 13.046H29.64c.633 0 1.208-.402 1.43-1l3.355-8.535c.017-.043.062-.183.021-.244-.068-.097-.346-.242-.84-.242H10.692v-1.541h22.914c.937 0 1.7.329 2.095.905.324.471.377 1.067.15 1.677zm-4.535-9.52H22.15v2.313h4.583v3.854h-1.527V8.479H14.512v2.313h-1.528V6.938h3.055V0h13.75v3.083h3.055v7.709h-1.528V4.625zm-3.055-3.083H17.567v5.396h3.055V3.083h7.639V1.542zm-13.755 29.28c1.688 0 3.061 1.386 3.061 3.089S16.194 37 14.506 37s-3.061-1.386-3.061-3.089 1.373-3.089 3.061-3.089zm0 4.636c.846 0 1.533-.694 1.533-1.547s-.687-1.547-1.533-1.547c-.846 0-1.533.694-1.533 1.547s.687 1.547 1.533 1.547zm13.76-4.636c1.688 0 3.062 1.386 3.062 3.089S29.954 37 28.266 37c-1.687 0-3.06-1.386-3.06-3.089s1.373-3.089 3.06-3.089zm0 4.636c.846 0 1.534-.694 1.534-1.547s-.688-1.547-1.534-1.547c-.845 0-1.533.694-1.533 1.547s.688 1.547 1.533 1.547z"/></svg>