<svg xmlns="http://www.w3.org/2000/svg" width="25" height="28" fill="none" viewBox="0 0 25 28"><path fill="currentColor" fill-rule="evenodd" d="M1.60958 4.40072 12.6265 2.54279V25.3781L1.55601 23.4597l.05357-19.05898ZM14.1828 16.2456c.2259-.0903.4277-.2186.6018-.3802l.7553-.6991 5.9009 5.2468h-7.258v-4.1675Zm7.3187-8.73507-7.3187 6.77867V7.51053h7.3187Zm1.2268.99716V19.4629l-6.033-5.366 6.033-5.58921Zm1.1313-2.03135-.0045-.01174-.0678-.06775c-.3027-.29716-.7009-.46154-1.1224-.46154h-8.4821V1.61337c0-.23303-.1-.45161-.2759-.60065-.1402-.120124-.3188-.18606-.5018-.18606l-.0991.00542-11.95267 2.0151c-.784824.13277-1.35357414.8129-1.35357414 1.61677V23.4597c0 .8039.56875014 1.4831 1.35357414 1.6159l11.91517 2.0078.1009.0136h.0366c.183 0 .3616-.066.5027-.187.1741-.1499.2741-.3694.2741-.6006v-4.322h8.4821c.4224 0 .817-.1598 1.1447-.4841l.0544-.0623c.2679-.299.4206-.6928.4206-1.0929V7.57466c0-.41368-.1616-.82013-.425-1.09832Z" clip-rule="evenodd"/><path fill="currentColor" fill-rule="evenodd" d="M7.50378 10.6317c1.12177 0 2.0338 1.0195 2.0338 2.273v2.1915c0 1.2526-.90951 2.273-2.02709 2.273-.05118 0-.10236-.0028-.15606-.0075-1.06053-.0824-1.89201-1.0794-1.89201-2.2655v-2.1915c0-1.187.83148-2.1831 1.89201-2.2674.05034-.0046.09984-.0056.14935-.0056ZM7.50126 9c-.08307 0-.16613.00281-.25003.00936C5.42802 9.1554 4 10.8658 4 12.9047v2.1915c0 2.038 1.42802 3.7484 3.24955 3.8935.08474.0075.17032.0103.25423.0103C9.43186 19 11 17.2485 11 15.0962v-2.1915C11 10.7515 9.43018 9 7.50126 9Z" clip-rule="evenodd"/></svg>
