<svg width="18" height="18" viewBox="0 0 18 18" fill="none" xmlns="http://www.w3.org/2000/svg">
    <path d="M7.03491 10.7951V7.75H3.98999v-1h3.04492V3.70399h1V6.75H11.081v1H8.03491v3.0451h-1Z"
          fill="currentColor"/>
    <path fill-rule="evenodd" clip-rule="evenodd"
          d="M7.91248 14.9862c1.5574-.0858 3.04512-.6547 4.25922-1.6214l4.2987 4.2988.7072-.7072-4.2647-4.2655c.6024-.6264 1.0918-1.354 1.4452-2.1508.4246-.95729.6433-1.99313.6419-3.04036.0005-1.71927-.5897-3.38652-1.6718-4.72257C12.2461 1.44101 10.7376.517252 9.05562.160617 7.37358-.196017 5.62009.0361261 4.0888.818167 2.55752 1.60021 1.34144 2.88465.644238 4.45638c-.6971989 1.57173-.83318 3.3353-.385167 4.99533C.707083 11.1117 1.71188 12.5674 3.10518 13.575c1.3933 1.0075 3.09048 1.5057 4.8073 1.4112ZM4.54363 1.70875c1.32711-.67777 2.84681-.878963 4.30457-.56988 1.4578.30908 2.7651 1.10967 3.7029 2.26768.9379 1.158 1.4494 2.60397 1.4489 4.09414.0013.90726-.1882 1.80465-.556 2.63401-.3531.7962-.863 1.5126-1.499 2.1066l-.0807.0732c-1.1043 1.0005-2.5189 1.5912-4.00681 1.6732-1.48792.0819-2.95881-.3498-4.16634-1.2231-1.20752-.8732-2.07834-2.1348-2.46662-3.57345-.388279-1.43869-.270429-2.96712.33381-4.32928.60424-1.36217 1.65817-2.47535 2.98529-3.15312Z"
          fill="currentColor"/>
</svg>