<svg xmlns="http://www.w3.org/2000/svg" width="35" height="30" viewBox="0 0 35 30"><path fill="currentColor" fill-rule="evenodd" d="m34.929 5.417-3.672 11.638c-.286.907-1.137 1.516-2.117 1.516H12.709l.949 3.063a.73.73 0 0 0 .707.509h15.867v1.428H14.365c-.985 0-1.837-.613-2.12-1.527L6.237 2.652a.73.73 0 0 0-.707-.509H-.011V.714H5.53c.985 0 1.837.614 2.12 1.528l.412 1.329h3.729V5H8.505l3.762 12.143H29.14a.731.731 0 0 0 .706-.505L33.519 5h-4.024V3.571h4.024c.472 0 .904.211 1.185.579s.363.83.225 1.267zM20.643 15.714c-4.474 0-8.114-3.524-8.114-7.857 0-4.332 3.64-7.857 8.114-7.857s8.114 3.525 8.114 7.857c0 4.333-3.64 7.857-8.114 7.857zm0-14.285c-3.661 0-6.639 2.883-6.639 6.428s2.978 6.429 6.639 6.429 6.639-2.884 6.639-6.429c0-3.545-2.978-6.428-6.639-6.428zm.738 10h-1.475V8.571h-2.951V7.143h2.951V4.286h1.475v2.857h2.95v1.428h-2.95v2.858zm-8.119 12.846c1.629 0 2.955 1.284 2.955 2.863 0 1.578-1.326 2.862-2.955 2.862-1.63 0-2.957-1.284-2.957-2.862 0-1.579 1.327-2.863 2.957-2.863zm0 4.296c.816 0 1.48-.643 1.48-1.433 0-.791-.664-1.434-1.48-1.434-.817 0-1.481.643-1.481 1.434 0 .79.664 1.433 1.481 1.433zm14.763-4.296c1.63 0 2.956 1.284 2.956 2.863 0 1.578-1.326 2.862-2.956 2.862s-2.956-1.284-2.956-2.862c0-1.579 1.326-2.863 2.956-2.863zm0 4.296c.817 0 1.481-.643 1.481-1.433 0-.791-.664-1.434-1.481-1.434-.817 0-1.481.643-1.481 1.434 0 .79.664 1.433 1.481 1.433z"/></svg>