<svg width="16" height="16" viewBox="0 0 16 16" fill="none" xmlns="http://www.w3.org/2000/svg">
    <path fill-rule="evenodd" clip-rule="evenodd"
          d="M13.6 8.00001C13.6 8.33138 13.3313 8.60001 13 8.60001H4.48964L7.81584 11.7675C8.0547 11.9972 8.06215 12.377 7.83247 12.6159C7.6028 12.8547 7.22297 12.8622 6.98411 12.6325L2.58411 8.43251C2.46646 8.31939 2.39997 8.16322 2.39997 8.00001C2.39997 7.8368 2.46646 7.68063 2.58411 7.56751L6.98411 3.36751C7.22297 3.13784 7.6028 3.14528 7.83247 3.38415C8.06215 3.62301 8.0547 4.00284 7.81584 4.23251L4.48964 7.40001H13C13.3313 7.40001 13.6 7.66864 13.6 8.00001Z"
          fill="currentColor"/>
</svg>
