<svg xmlns="http://www.w3.org/2000/svg" viewBox="0 0 18 18" width="18" height="18">
    <path fill="#FFF" fill-rule="evenodd" d="M16.793 4.482a8.996 8.996 0 0 0-3.275-3.274A8.838 8.838 0 0 0 9 0a8.834 8.834 0 0 0-4.517 1.208 8.98 8.98 0 0 0-3.275 3.274A8.838 8.838 0 0 0 0 9c0 1.625.406 3.145 1.208 4.518a8.993 8.993 0 0 0 3.274 3.274A8.843 8.843 0 0 0 9 18a8.838 8.838 0 0 0 4.518-1.208 8.996 8.996 0 0 0 3.275-3.274A8.85 8.85 0 0 0 18 9a8.847 8.847 0 0 0-1.207-4.518zM8.881 2.83v12.34a6.04 6.04 0 0 1-2.977-.827 6.176 6.176 0 0 1-2.247-2.247A6.058 6.058 0 0 1 2.829 9c0-1.114.279-2.156.828-3.097a6.191 6.191 0 0 1 2.247-2.247 6.047 6.047 0 0 1 2.977-.826z"/>
</svg>
