<svg xmlns="http://www.w3.org/2000/svg" width="64" height="64" fill="none" viewBox="0 0 64 64"><path fill="currentColor" d="M57.1429 0H6.85714C5.03852 0 3.29437.722447 2.00841 2.00841.722447 3.29437 0 5.03852 0 6.85714V57.1429c0 1.8186.722447 3.5627 2.00841 4.8487C3.29437 63.2776 5.03852 64 6.85714 64H26.4643V42.2414h-9V32h9v-7.8057c0-8.8786 5.2857-13.7829 13.3814-13.7829 3.8772 0 7.9314.6915 7.9314.6915v8.7142H43.31c-4.4014 0-5.7743 2.7315-5.7743 5.5329V32h9.8257L45.79 42.2414h-8.2543V64h19.6072c1.8186 0 3.5627-.7224 4.8487-2.0084S64 58.9615 64 57.1429V6.85714c0-1.81862-.7224-3.56277-2.0084-4.84873C60.7056.722447 58.9615 0 57.1429 0Z"/></svg>
