<svg xmlns="http://www.w3.org/2000/svg" width="39" height="39" viewBox="0 0 39 39"><path fill="currentColor" fill-rule="evenodd" d="M33.745 34.192c-3.668 0-4.518-1.707-3.955-4.273.46-2.096 2.043-4.793 3.635-7.5l.716-1.217.713 1.214c1.532 2.604 2.866 5.348 3.105 7.491.283 2.541-.759 4.285-4.214 4.285zm2.571-4.113c-.174-1.56-1.065-3.575-2.187-5.615-1.255 2.16-2.38 4.231-2.722 5.792-.305 1.388.205 2.311 2.338 2.311 2.097 0 2.736-1.013 2.571-2.488zm-5.692-13.803-7.857 20.85c-.292.775-.907 1.347-1.663 1.644a3.434 3.434 0 0 1-2.406.023L2.185 32.87a3.361 3.361 0 0 1-1.829-1.542c-.384-.707-.478-1.533-.19-2.307l4.856-13.045h-.81V5.55c0-1.512.579-2.891 1.511-3.894C6.674.633 7.991-.003 9.445-.003h1.234c1.453 0 2.77.636 3.721 1.659a5.712 5.712 0 0 1 1.511 3.894v2.26l17.795 6.382-.135 1.559-2.947.525zM14.256 5.55a4.11 4.11 0 0 0-1.078-2.802c-.645-.694-1.53-1.125-2.499-1.125H9.445c-.969 0-1.855.431-2.5 1.125A4.108 4.108 0 0 0 5.868 5.55v8.154L8.702 6.09l.284-.763.774.277 4.496 1.613V5.55zm1.655 3.985v6.441h-1.655V8.942L9.971 7.405 1.718 29.574c-.121.325-.076.681.093.992.185.341.512.628.936.781l16.514 5.921c.426.154.864.141 1.228-.002.335-.132.604-.376.726-.699l8.021-21.283.163-.434.467-.083.421-.076-14.376-5.156z"/></svg>