<svg xmlns="http://www.w3.org/2000/svg" width="126" height="32" viewBox="0 0 126 32" fill="none">
    <g clip-path="url(#clip0_1357_21)">
        <path fill-rule="evenodd" clip-rule="evenodd" d="M125.659 7.02439H114.732L120.196 0L125.659 7.02439Z" fill="#FD086D"/>
        <path d="M4.37637 25.7561V17.1807H13.0976V13.1639H4.37637V7.13874H14.8293V3.12198H0V25.7561H4.37637ZM24.1951 24.9756V2.34149H19.5122V24.9756H24.1951ZM34.0169 31.2195L42.1463 9.36588H37.9425L34.4806 18.9866H34.4497L30.7404 9.36588H26.5366L32.5332 23.9562L29.8749 31.2195H34.0169ZM49.6856 25.7561V16.9256H58.8022V25.7561H63.2195V3.12198H58.8022V12.9089H49.6856V3.12198H45.2683V25.7561H49.6856ZM71.3979 7.80491C72.9062 7.80491 74.1463 6.57564 74.1463 5.0732C74.1463 3.57076 72.9062 2.34149 71.3979 2.34149C69.9231 2.34149 68.6829 3.57076 68.6829 5.0732C68.6829 6.57564 69.9231 7.80491 71.3979 7.80491ZM73.3659 24.9756V9.36588H68.6829V24.9756H73.3659ZM84.2463 32C90.0266 32 92.0976 28.4534 92.0976 23.5525V9.62382H88.0792V11.2359H87.9865C86.781 9.97849 85.1736 9.36588 83.4736 9.36588C79.4243 9.36588 76.4878 12.6868 76.4878 17.3297C76.4878 21.9082 79.517 25.0679 83.6899 25.0679C85.5136 25.0679 87.0283 24.4231 88.0792 23.2301H88.1719V24.81C88.1719 26.7445 86.7192 28.3244 83.8754 28.3244C81.959 28.3244 80.4753 27.7118 78.9916 26.8412L78.0333 30.4202C79.8261 31.4519 81.8662 32 84.2463 32ZM85.089 21.0732C82.8771 21.0732 81.1707 19.5434 81.1707 17.1395C81.1707 14.8293 82.7823 13.2683 85.089 13.2683C87.2693 13.2683 88.9756 14.7669 88.9756 17.1083C88.9756 19.4186 87.3641 21.0732 85.089 21.0732ZM100.896 24.9756V17.3489C100.896 14.6734 102.31 13.3203 104.509 13.3203C106.457 13.3203 107.494 14.2121 107.494 16.9799V24.9756H111.61V15.965C111.61 11.3828 109.253 9.72219 105.955 9.72219C104.007 9.72219 102.216 10.3988 100.959 11.7826H100.896V2.34149H96.7805V24.9756H100.896Z" fill="#003AFF"/>
    </g>
</svg>