<svg xmlns="http://www.w3.org/2000/svg" width="40" height="32" viewBox="0 0 40 32"><path fill="currentColor" fill-rule="evenodd" d="M37.913 18.714h-6.812v-4.78H8.899v4.78H2.087A3.403 3.403 0 0 1 0 15.572V9.57c0-1.873 1.509-3.398 3.364-3.398h33.272C38.491 6.172 40 7.697 40 9.57v6.002a3.402 3.402 0 0 1-2.087 3.142zm.696-9.144a1.984 1.984 0 0 0-1.973-1.992H3.364A1.984 1.984 0 0 0 1.391 9.57v6.002c0 1.099.885 1.992 1.973 1.992h4.144v-3.63H5.565v-1.405h28.87v1.405h-1.942v3.63h4.143a1.984 1.984 0 0 0 1.973-1.992V9.57zm-7.508 9.4H8.899v-.256h22.202v.256zm-6.666 11.623v-6.734h6.666V18.97h1.392v5.883l-7.074 7.145H7.508V18.97h1.391v11.623h15.536zm1.391-.994 4.291-4.335h-4.291v4.335zm5.218-28.196H8.956v2.661H7.565V-.002h24.87v4.066h-1.391V1.403z"/></svg>