<svg xmlns="http://www.w3.org/2000/svg" width="34" height="24" fill="none" viewBox="0 0 34 24"><path fill="currentColor" fill-rule="evenodd" d="M33.6879 8.04883c.0001-.01675.0012-.03296.0012-.04981C33.6891 3.58142 30.108 0 25.6903 0c-4.4176 0-7.9988 3.58142-7.9988 7.99902 0 4.38838 3.5342 7.94948 7.9114 7.99658-.2927.6625-.8068 1.561-1.7006 2.543-1.9775 2.1728-5.8344 4.0464-5.8344 4.0464s-.1803.0528-.2823.2822c-.0846.1904-.0941.5644-.0941.5644s.0775.3171.2823.4707c.1678.1259.4705.0943.4705.0943s3.2761-.4662 6.0226-1.6001c2.3513-.9707 4.2347-2.6348 4.2347-2.6348s1.876-1.7298 3.0114-3.7641c1.9571-3.5064 1.9011-5.5588 1.9761-7.43412.0077-.19234.0064-.36315-.0012-.51465Zm-17.6903-.04981C15.9976 3.58142 12.4165 0 7.99881 0 3.58121 0 0 3.58142 0 7.99902c0 4.38838 3.53424 7.94948 7.91138 7.99658-.29267.6625-.80674 1.561-1.70053 2.543C4.23335 20.7114.376404 22.585.376404 22.585s-.18028.0528-.2822878.2822C.00951621 23.0576 0 23.4316 0 23.4316s.0774541.3171.282318.4707c.167787.1259.47052.0943.47052.0943s3.276102-.4662 6.022612-1.6001c2.35128-.9707 4.23465-2.6348 4.23465-2.6348s1.876-1.7298 3.0114-3.7641c1.9571-3.5064 1.9011-5.5588 1.9761-7.43412.0077-.19234.0064-.36315-.0012-.51465.0001-.01675.0012-.03296.0012-.04981Z" clip-rule="evenodd"/></svg>
