<svg xmlns="http://www.w3.org/2000/svg" width="20" height="20" viewBox="0 0 20 20"><path fill="currentColor" fill-rule="evenodd" d="M8.884 13.984c-1.441 0-2.673-.511-3.698-1.532-1.023-1.021-1.536-2.25-1.536-3.687 0-1.437.513-2.666 1.536-3.687 1.025-1.021 2.257-1.533 3.698-1.533 1.441 0 2.673.512 3.698 1.533 1.023 1.021 1.536 2.25 1.536 3.687 0 1.437-.513 2.666-1.536 3.687-1.025 1.021-2.257 1.532-3.698 1.532zm10.783 3.424-4.007-3.995a7.965 7.965 0 0 0 1.448-4.648 8.04 8.04 0 0 0-.648-3.186 8.19 8.19 0 0 0-1.753-2.621 8.199 8.199 0 0 0-2.628-1.748A8.103 8.103 0 0 0 8.884.563a8.103 8.103 0 0 0-3.195.647 8.21 8.21 0 0 0-2.628 1.748 8.207 8.207 0 0 0-1.753 2.621A8.04 8.04 0 0 0 .66 8.765c0 1.111.216 2.172.648 3.186a8.207 8.207 0 0 0 1.753 2.621 8.243 8.243 0 0 0 2.628 1.748 8.102 8.102 0 0 0 3.195.646c1.714 0 3.267-.481 4.661-1.444l4.007 3.984c.28.295.631.442 1.052.442a1.44 1.44 0 0 0 1.051-.442c.296-.295.444-.645.444-1.048 0-.413-.144-.762-.432-1.05z"/></svg>
