<svg width="19" height="19" viewBox="0 0 19 19" fill="none" xmlns="http://www.w3.org/2000/svg"><path d="M8.9392 2.7715a.3976.3976 0 0 0 .3637-.4292.398.398 0 0 0-.4293-.3638h-.0003a7.5316 7.5316 0 1 0 8.1483 8.1483v-.0003a.3988.3988 0 0 0-.0176-.1542l-.0952.0305.0952-.0305a.3984.3984 0 0 0-.3462-.275.3974.3974 0 0 0-.3865.2145.3965.3965 0 0 0-.0427.1489 6.7383 6.7383 0 0 1-4.4034 5.7535 6.7375 6.7375 0 0 1-7.074-1.5652 6.738 6.738 0 0 1 .6692-10.1149 6.7379 6.7379 0 0 1 3.5188-1.3626Zm0 0h-.0001l-.0083-.0996m.0084.0997h.0002l-.0085-.0997m0 0a.298.298 0 0 0-.049-.5937l.049.5937ZM9.5 9.897h4.1563a.3969.3969 0 0 0 0-.7937H9.897V5.3438a.3969.3969 0 1 0-.7938 0V9.5a.3969.3969 0 0 0 .3969.397Zm2.375-6.5312a.6937.6937 0 1 0 0-1.3875.6937.6937 0 0 0 0 1.3875Zm2.6719 1.7812a.6937.6937 0 1 0 0-1.3874.6937.6937 0 0 0 0 1.3874Zm1.7812 2.6719a.694.694 0 0 0 .641-.4283.6935.6935 0 0 0-.1504-.756.6939.6939 0 0 0-1.1843.4905.6938.6938 0 0 0 .6937.6938Z" fill="currentColor" stroke="currentColor" stroke-width=".2"/></svg>