<svg width="21" height="16" viewBox="0 0 21 16" fill="none" xmlns="http://www.w3.org/2000/svg"><path fill-rule="evenodd" clip-rule="evenodd" d="M.00000704.825007c0-.455635.36936496-.82499996.82499996-.82499996H19.825c.4556 0 .825.36936496.825.82499996V14.0473c0 .4296-.1737.8388-.4787 1.1384-.3042.2989-.7138.4643-1.1379.4643H1.61668c-.42411 0-.833669-.1654-1.137883-.4642-.304619-.2994-.47878996-.7087-.47878996-1.1385V.825007ZM1.65001 1.65001V14H19V1.65001H1.65001Z" fill="currentColor"/><path fill-rule="evenodd" clip-rule="evenodd" d="M.211968.272913C.516881-.0656594 1.03853-.0929454 1.3771.211968l8.948 8.058392L19.2729.211971c.3386-.3049152.8602-.2776319 1.1651.060939.305.33857.2777.86022-.0609 1.16513l-9.4999 8.55561c-.3139.28265-.7904.28265-1.10424 0L.272913 1.43805C-.0656594 1.13313-.0929454.611485.211968.272913Z" fill="currentColor"/></svg>