<svg width="16" height="19" viewBox="0 0 16 19" fill="none" xmlns="http://www.w3.org/2000/svg"><path fill-rule="evenodd" clip-rule="evenodd" d="M1.49575 4.4318v13.05H11.6034V7.63151L8.41779 4.4318H1.49575ZM.434237 3.34651c.276838-.27806.650673-.43287 1.038853-.43287h7.25219c.197 0 .38604.07888.52606.21953l3.62606 3.64205c.1419.14257.2218.33685.2218.53955V17.5125c0 .397-.1571.7762-.4342 1.0546-.2769.2781-.6507.4329-1.0389.4329H1.47309c-.38811 0-.761974-.1547-1.038872-.4329C.157123 18.2888 0 17.9096 0 17.5125V4.40113c0-.3971.157135-.7763.434237-1.05462Z" fill="currentColor"/><path fill-rule="evenodd" clip-rule="evenodd" d="M4.39651 1.51816v2.15456c0 .41923-.33483.75908-.74788.75908-.41304 0-.74787-.33985-.74787-.75908V1.48749c0-.39709.15713-.776291.43423-1.054614C3.61183.154819 3.98567 0 4.37385 0H11.626c.197 0 .3861.0788885.5261.21953l3.626 3.64205c.142.14258.2218.33685.2218.53955V14.5988c0 .3971-.157.7763-.4342 1.0547-.2769.2781-.6507.4329-1.0388.4329h-2.1757c-.413 0-.7479-.3399-.7479-.7591s.3349-.7591.7479-.7591h2.153V4.71788l-3.1857-3.19972H4.39651Z" fill="currentColor"/><path fill-rule="evenodd" clip-rule="evenodd" d="M3.6261 11.6852c0-.4193.33483-.7591.74788-.7591h4.35133c.41304 0 .74788.3398.74788.7591 0 .4192-.33484.759-.74788.759H4.37398c-.41305 0-.74788-.3398-.74788-.759Zm0 2.9137c0-.4193.33483-.7591.74788-.7591h4.35133c.41304 0 .74788.3398.74788.7591 0 .4192-.33484.759-.74788.759H4.37398c-.41305 0-.74788-.3398-.74788-.759Z" fill="currentColor"/></svg>