<svg width="15" height="15" viewBox="0 0 15 15" fill="none" xmlns="http://www.w3.org/2000/svg">
<path d="M7.5014 3.59814C5.3728 3.59814 3.64331 5.33066 3.64331 7.45624C3.64331 9.58182 5.37582 11.3143 7.5014 11.3143C9.62698 11.3143 11.3595 9.58182 11.3595 7.45624C11.3595 5.33066 9.62698 3.59814 7.5014 3.59814ZM7.5014 9.93558C6.13474 9.93558 5.02206 8.8229 5.02206 7.45624C5.02206 6.08958 6.13474 4.9769 7.5014 4.9769C8.86806 4.9769 9.98074 6.08958 9.98074 7.45624C9.98074 8.8229 8.86806 9.93558 7.5014 9.93558Z" fill="currentColor"/>
<path d="M11.8786 4.29683C12.3166 4.09034 12.5043 3.56784 12.2978 3.12981C12.0913 2.69178 11.5688 2.50408 11.1308 2.71058C10.6927 2.91707 10.505 3.43957 10.7115 3.8776C10.918 4.31563 11.4405 4.50333 11.8786 4.29683Z" fill="currentColor"/>
<path d="M13.7906 1.22758C12.9923 0.423302 11.8948 0 10.6158 0H4.38722C1.76275 0 0 1.76275 0 4.38722V10.5825C0 11.8948 0.435396 13.0105 1.26386 13.8117C2.06511 14.5888 3.15662 15.003 4.42048 15.003H10.5795C11.8676 15.003 12.9682 14.5918 13.7634 13.8148C14.5707 13.0256 15 11.919 15 10.6158V4.38722C15 3.11732 14.5827 2.0258 13.7906 1.2306V1.22758ZM13.6182 10.6158C13.6182 11.538 13.334 12.303 12.7988 12.826C12.2667 13.3461 11.4987 13.6212 10.5795 13.6212H4.42048C3.52248 13.6212 2.76356 13.3461 2.22536 12.82C1.67204 12.2848 1.38178 11.5108 1.38178 10.5795V4.38722C1.38178 3.47107 1.65995 2.70913 2.18907 2.18303C2.71518 1.65995 3.4741 1.38178 4.3842 1.38178H10.6128C11.5168 1.38178 12.2758 1.666 12.8079 2.20117C13.337 2.73332 13.6152 3.48922 13.6152 4.38722V10.6158H13.6182Z" fill="currentColor"/>
</svg>
