<svg width="16" height="16" viewBox="0 0 16 16" fill="none" xmlns="http://www.w3.org/2000/svg">
<path d="M14.8178 0H1.18222C0.524444 0 0 0.524444 0 1.18222V14.8178C0 15.4667 0.524444 16 1.18222 16H14.8178C15.4667 16 16 15.4756 16 14.8178V1.18222C16 0.533333 15.4756 0 14.8178 0ZM4.76444 13.6267H2.35556V5.99111H4.76444V13.6267ZM3.56444 4.92444C2.8 4.92444 2.17778 4.33778 2.17778 3.54667C2.17778 2.75556 2.8 2.16889 3.56444 2.16889C4.32889 2.16889 4.95111 2.75556 4.95111 3.54667C4.95111 4.33778 4.32889 4.92444 3.56444 4.92444ZM13.6178 8.90667V13.6267H11.2267V9.44889C11.2267 8.21333 10.7022 7.84 10.0267 7.84C9.31556 7.84 8.61333 8.37333 8.61333 9.48444V13.6267H6.20444V5.99111H8.51556V7.04889H8.54222C8.77333 6.57778 9.59111 5.77778 10.8267 5.77778C12.1689 5.77778 13.6178 6.57778 13.6178 8.90667Z" fill="black"/>
<path d="M14.8178 0H1.18222C0.524444 0 0 0.524444 0 1.18222V14.8178C0 15.4667 0.524444 16 1.18222 16H14.8178C15.4667 16 16 15.4756 16 14.8178V1.18222C16 0.533333 15.4756 0 14.8178 0ZM4.76444 13.6267H2.35556V5.99111H4.76444V13.6267ZM3.56444 4.92444C2.8 4.92444 2.17778 4.33778 2.17778 3.54667C2.17778 2.75556 2.8 2.16889 3.56444 2.16889C4.32889 2.16889 4.95111 2.75556 4.95111 3.54667C4.95111 4.33778 4.32889 4.92444 3.56444 4.92444ZM13.6178 8.90667V13.6267H11.2267V9.44889C11.2267 8.21333 10.7022 7.84 10.0267 7.84C9.31556 7.84 8.61333 8.37333 8.61333 9.48444V13.6267H6.20444V5.99111H8.51556V7.04889H8.54222C8.77333 6.57778 9.59111 5.77778 10.8267 5.77778C12.1689 5.77778 13.6178 6.57778 13.6178 8.90667Z" stroke="#BDBDBD"/>
</svg>
