<svg width="19" height="19" viewBox="0 0 19 19" fill="none" xmlns="http://www.w3.org/2000/svg">
<path d="M17.5961 0H1.40389C0.622777 0 0 0.622777 0 1.40389V17.5961C0 18.3667 0.622777 19 1.40389 19H17.5961C18.3667 19 19 18.3773 19 17.5961V1.40389C19 0.633333 18.3773 0 17.5961 0ZM5.65777 16.1817H2.79723V7.11444H5.65777V16.1817ZM4.23277 5.84777C3.325 5.84777 2.58611 5.15111 2.58611 4.21167C2.58611 3.27223 3.325 2.57556 4.23277 2.57556C5.14056 2.57556 5.87944 3.27223 5.87944 4.21167C5.87944 5.15111 5.14056 5.84777 4.23277 5.84777ZM16.1711 10.5767V16.1817H13.3317V11.2206C13.3317 9.75333 12.7089 9.31 11.9067 9.31C11.0622 9.31 10.2283 9.94333 10.2283 11.2628V16.1817H7.36777V7.11444H10.1122V8.37056H10.1439C10.4183 7.81111 11.3894 6.86111 12.8567 6.86111C14.4506 6.86111 16.1711 7.81111 16.1711 10.5767Z" fill="currentColor"/>
</svg>
