<svg width="144" height="46" viewBox="0 0 144 46" fill="none" xmlns="http://www.w3.org/2000/svg"><path d="M2.725 8.744a30.48 30.48 0 0 0 5.553 2.076 27.407 27.407 0 0 0-.386 4.227H.99a13.97 13.97 0 0 1 1.736-6.303Zm2.731-3.527c.46-.439.946-.845 1.453-1.222a16.246 16.246 0 0 0 2.918 1.598c-.576 1.278-1.042 2.73-1.375 4.308A29.146 29.146 0 0 1 3.21 7.932a14.858 14.858 0 0 1 2.246-2.715Zm7.47-3.922C11.91 2.113 11 3.29 10.24 4.742a14.95 14.95 0 0 1-2.492-1.328 15.545 15.545 0 0 1 5.18-2.12m.7.659c.696-.546 1.418-.872 2.149-.973v4.954a15.545 15.545 0 0 1-4.62-.842 4.28 4.28 0 0 0 .056-.112c.71-1.31 1.521-2.328 2.414-3.027Zm-4.225 8.182c.314-1.518.762-2.932 1.334-4.192a16.59 16.59 0 0 0 5.037.928v4.046a29.815 29.815 0 0 1-6.371-.782Zm6.37 1.72v3.192h-6.9c.022-1.373.143-2.713.358-3.99 2.103.489 4.293.765 6.545.797Zm7.526-.798a26.7 26.7 0 0 1 .357 3.99h-6.902v-3.193a31.026 31.026 0 0 0 6.545-.797ZM16.755 6.87a16.59 16.59 0 0 0 5.036-.928c.572 1.263 1.02 2.677 1.338 4.192a30.031 30.031 0 0 1-6.371.783V6.87h-.003Zm0-5.888c.73.101 1.452.427 2.15.973.892.7 1.704 1.72 2.413 3.027.019.035.037.077.06.112a15.64 15.64 0 0 1-4.62.842V.983h-.003Zm8.029 2.434c-.787.522-1.624.967-2.492 1.328-.76-1.452-1.67-2.632-2.688-3.45a15.545 15.545 0 0 1 5.18 2.12m2.29 1.799c.867.83 1.62 1.74 2.245 2.715a29.345 29.345 0 0 1-5.242 1.968c-.332-1.576-.799-3.029-1.375-4.307a16.271 16.271 0 0 0 2.921-1.598c.508.374.99.783 1.453 1.222m4.467 9.833h-6.902a27.8 27.8 0 0 0-.386-4.227 30.263 30.263 0 0 0 5.553-2.078 13.903 13.903 0 0 1 1.735 6.305Zm.98 0C32.262 6.702 25.085.014 16.266.014 7.447.014.268 6.702.01 15.047H0v.934h32.53v-.934h-.01.003Zm-2.719 22.213a30.392 30.392 0 0 0-5.552-2.076c.23-1.34.364-2.757.389-4.227h6.9a13.97 13.97 0 0 1-1.737 6.303Zm-2.73 3.527c-.461.44-.947.848-1.454 1.222a16.243 16.243 0 0 0-2.918-1.598c.576-1.278 1.043-2.73 1.375-4.308a29.156 29.156 0 0 1 5.242 1.969 14.751 14.751 0 0 1-2.249 2.715m-7.466 3.92c1.014-.819 1.926-1.996 2.685-3.448.87.364 1.704.809 2.491 1.328a15.519 15.519 0 0 1-5.179 2.12m-.7-.659c-.697.546-1.418.872-2.15.973v-4.951c1.6.047 3.152.335 4.62.842a3.698 3.698 0 0 0-.056.112c-.71 1.31-1.521 2.328-2.414 3.027m-2.15-8.964c2.169.035 4.3.296 6.371.782-.314 1.518-.762 2.932-1.334 4.192a16.592 16.592 0 0 0-5.036-.928v-4.046Zm0-4.13h6.903a27.123 27.123 0 0 1-.354 3.99 30.83 30.83 0 0 0-6.545-.797v-3.193h-.003Zm-.98 3.193a31.028 31.028 0 0 0-6.544.797 27.125 27.125 0 0 1-.358-3.99h6.903v3.193Zm0 4.983c-1.766.05-3.459.374-5.036.928-.572-1.263-1.02-2.677-1.334-4.195a30.031 30.031 0 0 1 6.37-.782v4.049Zm0 5.888c-.73-.101-1.452-.427-2.149-.973-.893-.7-1.705-1.716-2.414-3.026l-.056-.113a15.642 15.642 0 0 1 4.62-.842v4.954Zm-8.025-2.434c.787-.522 1.62-.964 2.492-1.328.759 1.452 1.67 2.63 2.684 3.447a15.503 15.503 0 0 1-5.176-2.12Zm-2.29-1.8a14.95 14.95 0 0 1-2.249-2.715 29.343 29.343 0 0 1 5.242-1.965c.333 1.576.8 3.03 1.375 4.307a16.143 16.143 0 0 0-2.918 1.598 15.021 15.021 0 0 1-1.453-1.222M.99 30.956h6.9a27.83 27.83 0 0 0 .389 4.227 30.478 30.478 0 0 0-5.553 2.076A13.98 13.98 0 0 1 .99 30.956ZM.01 30v.02H0v.934h.01c.258 8.345 7.437 15.033 16.256 15.033 8.82 0 15.999-6.688 16.257-15.033h.01V30H.008Z" fill="currentColor"/><path d="M32.52 30.007c0-3.585-1.767-6.685-4.573-8.669-5.618-4.159-15.193-5.054-15.843-5.113v-.25H.006c0 3.564 1.795 6.71 4.573 8.696 5.817 4.304 15.846 5.101 15.846 5.101v.229H32.52v.006Zm17.822-4.547c.486 2.977 1.394 4.48 4.215 4.48 2.212 0 3.79-.75 3.79-2.34 0-1.588-.729-2.137-5.488-3.554-4.579-1.357-6.063-3.207-6.063-5.837 0-2.976 2.548-5.748 7.155-5.748 3.73 0 7.124 1.648 7.883 5.517l-3.973.955c-.516-1.56-1.515-2.861-3.91-2.861-2.184 0-3.123.895-3.123 2.108 0 1.212.697 1.503 5.397 3.032 4.79 1.56 6.125 3.178 6.125 6.125 0 3.525-2.97 6.21-7.793 6.21-4.821 0-7.882-2.338-8.52-7.194l4.305-.896v.003Zm13.68-12.575h4.152l2.728 13.752h.09l4.882-13.752h2.062l4.88 13.752h.091l2.728-13.752h4.063l-4.122 20.224h-4.243l-4.368-12.57h-.18L72.39 33.11h-4.247l-4.121-20.224Zm29.009 0h13.429v3.61h-9.338v4.536h8.489V24.5h-8.49v4.998h9.339v3.61H93.031V12.886Zm17.524 0h13.432v3.61h-9.339v4.536h8.49V24.5h-8.49v4.998h9.339v3.61h-13.432V12.886Zm26.075 9.246c1.789 0 3.124-1.097 3.124-2.801 0-2.138-1.577-2.831-3.124-2.831h-4.457v5.632h4.457Zm-8.548-9.246h8.611c4.274 0 7.307 2.454 7.307 6.442 0 3.987-2.728 6.415-7.307 6.415h-4.517v7.367h-4.094V12.885Z" fill="currentColor"/></svg>