<svg width="24" height="24" viewBox="0 0 24 24" fill="none" xmlns="http://www.w3.org/2000/svg"><path d="M12 12.6153c1.3254 0 2.4-1.102 2.4-2.4615S13.3254 7.6923 12 7.6923c-1.3255 0-2.4 1.102-2.4 2.4615s1.0745 2.4615 2.4 2.4615Z" stroke="currentColor" stroke-linecap="round" stroke-linejoin="round"/><path d="M18 10.1538C18 15.6923 12 20 12 20s-6-4.3077-6-9.8462c0-1.632.6321-3.1973 1.7574-4.3514C8.8826 4.6484 10.4087 4 12 4c1.5913 0 3.1174.6483 4.2426 1.8024C17.3678 6.9564 18 8.5218 18 10.1538Z" stroke="currentColor" stroke-linecap="round" stroke-linejoin="round"/></svg>