<svg width="16" height="16" viewBox="0 0 16 16" fill="none" xmlns="http://www.w3.org/2000/svg">
<path d="M8 0C5.79072 0 3.79072 0.89536 2.34304 2.34304C0.89536 3.79072 0 5.79072 0 8C0 10.2093 0.89536 12.2093 2.34304 13.657C3.79072 15.1046 5.79072 16 8 16C10.2093 16 12.2093 15.1046 13.657 13.657C15.1046 12.2093 16 10.2093 16 8C16 3.58176 12.4182 0 8 0ZM13.0691 5.67712C12.497 8.90016 9.29984 11.6298 8.33856 12.2534C7.37664 12.8774 6.49888 12.0035 6.1808 11.343C5.81664 10.5898 4.72608 6.5088 4.44 6.17088C4.15424 5.83296 3.296 6.50944 3.296 6.50944L2.88 5.96352C2.88 5.96352 4.62176 3.88384 5.9472 3.62368C7.35264 3.34784 7.34976 5.78144 7.688 7.13248C8.01504 8.43936 8.23488 9.18688 8.52 9.18688C8.80512 9.18688 9.352 8.4576 9.94976 7.34048C10.5485 6.2224 9.92384 5.23488 8.75456 5.93728C9.00288 4.44576 10.3661 3.55648 11.5043 3.53312C12.5085 3.51296 13.337 4.16672 13.0691 5.67712Z" fill="black"/>
</svg>
