<svg width="19" height="19" viewBox="0 0 19 19" fill="none" xmlns="http://www.w3.org/2000/svg">
<path d="M9.30499 0C4.17382 0 0 4.17382 0 9.30499C0 11.1336 0.536924 12.8355 1.44868 14.2741L0.116502 19L5.11091 17.607C6.37217 18.2453 7.79552 18.615 9.30499 18.615C14.4412 18.615 18.615 14.4362 18.615 9.30499C18.615 4.17382 14.4412 0 9.30499 0ZM9.30499 17.136C7.87657 17.136 6.53426 16.751 5.37937 16.0773L2.06665 17.136C2.06665 17.136 2.76566 14.7958 3.01386 13.9701C2.04639 12.6684 1.47401 11.0525 1.47401 9.30499C1.47401 4.98934 4.98934 1.47401 9.30499 1.47401C13.6206 1.47401 17.136 4.98934 17.136 9.30499C17.136 13.6206 13.6257 17.136 9.30499 17.136Z" fill="black"/>
<path d="M5.60394 5.06007C4.9961 5.48049 4.58075 6.13392 4.44905 6.86332C4.30215 8.01315 5.0113 9.19843 5.0113 9.19843C5.73057 10.2672 6.58661 11.2398 7.55409 12.0958C8.4 12.7644 9.36241 13.276 10.3907 13.6053C10.9884 13.8433 11.6469 13.9041 12.28 13.7825C12.8423 13.6306 13.3387 13.2963 13.6983 12.8353C13.7844 12.6276 13.8401 12.4098 13.8756 12.187C13.9111 11.9894 13.9111 11.7919 13.8756 11.5943C13.8452 11.3866 11.7178 10.4141 11.5101 10.4698C11.3024 10.5255 11.1251 10.9105 10.8921 11.2398C10.6591 11.569 10.568 11.7108 10.3299 11.7108C10.0918 11.7108 9.05849 11.2955 8.08595 10.409C7.52876 9.92784 7.09314 9.32 6.81455 8.63618C6.81455 8.63618 6.99184 8.4285 7.22991 8.10432C7.41226 7.90171 7.54396 7.65858 7.61487 7.39518C7.61487 7.24829 6.78923 5.15125 6.58155 5.06007C6.25737 5.01448 5.92812 5.01448 5.60394 5.06007Z" fill="black"/>
</svg>
